<svg id="Layer_1" data-name="Layer 1" xmlns="http://www.w3.org/2000/svg" viewBox="0 0 562.39 841.89"><defs><style>.cls-1{fill:#ea5235;}.cls-2,.cls-3,.cls-4{fill:#1d1d1b;}.cls-3,.cls-4,.cls-5,.cls-6{stroke:#1d1d1b;stroke-linecap:round;stroke-miterlimit:10;}.cls-3{stroke-width:3px;}.cls-5,.cls-6{fill:none;}.cls-5{stroke-width:2px;}</style></defs><rect id="rechtsonder" class="cls-1" x="180.29" y="680.39" width="382.1" height="161.5"/><g id="_20" data-name="20"><path id="_2" data-name="2" class="cls-1" d="M389.36,653.88s31.36-35,31.93-51.86c0,0-.19-6.66-3.42-8.18s-9.51-2.28-10.84,5.51l1.32,7.8h-19V594s1.51-15.2,13.87-16.92,23-.57,24.14,0,10.26,4.38,11.6,17.11,1.71,21.78-12.17,41.63-12.33,18-12.33,18h25.11v17.71H389.36Z"/><path id="_0" data-name="0" class="cls-1" d="M509.68,585.29c-3.42-11.6-23.68-10.65-23.68-10.65-25.39,0-25,17.3-25,17.3v49c0,14.69,3.43,22.81,4.19,24.33s7.79,8,20.8,8,16.26-2.47,20.07-5.89,5.91-6.09,5.91-25.1S513.1,596.88,509.68,585.29Zm-17,66.72s-3.22,3.61-6.3,3.61a6.3,6.3,0,0,1-5.56-3.61c-.38-1.14-.76-55.13-.76-55.13s1.31-4.94,6-4.94,6.72,2.66,6.64,4.94S492.64,652,492.64,652Z"/></g><g id="meetlint"><path class="cls-2" d="M24.49,152.07S147.34,103.19,252,88.32c109.59-15.57,205.83-18.6,299.49-4.6V94.23s-100.37-22.55-270.28.69c-123.93,17-252.68,66.25-252.68,66.25Z"/><line class="cls-3" x1="13.31" y1="124.07" x2="28.23" y2="159.52"/><line class="cls-4" x1="27.82" y1="139.82" x2="34.67" y2="157.09"/><line class="cls-3" x1="87.34" y1="99.12" x2="99.16" y2="135.72"/><line class="cls-4" x1="100.44" y1="116.06" x2="105.78" y2="133.85"/><line class="cls-3" x1="31.79" y1="125.81" x2="42" y2="154.47"/><line class="cls-4" x1="42.69" y1="134.78" x2="48.56" y2="152.4"/><line class="cls-3" x1="45.52" y1="120.85" x2="55.85" y2="149.86"/><line class="cls-4" x1="56.55" y1="130.17" x2="62.41" y2="147.79"/><line class="cls-3" x1="59.76" y1="115.77" x2="70.09" y2="144.78"/><line class="cls-4" x1="70.79" y1="125.09" x2="76.66" y2="142.72"/><line class="cls-3" x1="74" y1="111.47" x2="83.84" y2="140.65"/><line class="cls-4" x1="85.79" y1="121.52" x2="91.57" y2="139.17"/><line class="cls-3" x1="159.36" y1="77.73" x2="168.78" y2="115.02"/><line class="cls-4" x1="171.34" y1="95.49" x2="175.51" y2="113.58"/><line class="cls-3" x1="103.11" y1="102" x2="111.78" y2="131.15"/><line class="cls-4" x1="113.52" y1="111.53" x2="118.45" y2="129.43"/><line class="cls-3" x1="117.08" y1="97.76" x2="125.86" y2="127.28"/><line class="cls-4" x1="127.6" y1="107.66" x2="132.53" y2="125.57"/><line class="cls-3" x1="131.57" y1="93.45" x2="140.35" y2="122.96"/><line class="cls-4" x1="142.09" y1="103.34" x2="147.02" y2="121.25"/><line class="cls-3" x1="146.01" y1="89.91" x2="154.3" y2="119.57"/><line class="cls-4" x1="156.36" y1="99.98" x2="160.99" y2="117.97"/><line class="cls-3" x1="234.55" y1="62.33" x2="240.9" y2="100.26"/><line class="cls-4" x1="245.04" y1="81" x2="247.73" y2="99.38"/><line class="cls-3" x1="176.51" y1="81.93" x2="182.78" y2="111.69"/><line class="cls-4" x1="186.11" y1="92.28" x2="189.56" y2="110.53"/><line class="cls-3" x1="190.78" y1="78.85" x2="197.12" y2="108.98"/><line class="cls-4" x1="200.46" y1="89.57" x2="203.9" y2="107.82"/><line class="cls-3" x1="205.57" y1="75.73" x2="211.92" y2="105.86"/><line class="cls-4" x1="215.25" y1="86.45" x2="218.7" y2="104.7"/><line class="cls-3" x1="220.26" y1="73.38" x2="226.09" y2="103.62"/><line class="cls-4" x1="229.75" y1="84.26" x2="232.89" y2="102.57"/><line class="cls-3" x1="309.58" y1="50.77" x2="312.99" y2="89.08"/><line class="cls-4" x1="318.6" y1="70.19" x2="319.86" y2="88.72"/><line class="cls-3" x1="250.2" y1="65.84" x2="254.15" y2="95.99"/><line class="cls-4" x1="258.97" y1="76.89" x2="261" y2="95.35"/><line class="cls-3" x1="264.66" y1="63.86" x2="268.67" y2="94.4"/><line class="cls-4" x1="273.49" y1="75.3" x2="275.52" y2="93.76"/><line class="cls-3" x1="279.66" y1="61.89" x2="283.66" y2="92.43"/><line class="cls-4" x1="288.48" y1="73.33" x2="290.51" y2="91.79"/><line class="cls-3" x1="294.47" y1="60.68" x2="297.96" y2="91.28"/><line class="cls-4" x1="303.1" y1="72.26" x2="304.82" y2="90.75"/><line class="cls-3" x1="384.7" y1="45.75" x2="386" y2="84.19"/><line class="cls-4" x1="392.64" y1="65.64" x2="392.88" y2="84.21"/><line class="cls-3" x1="324.58" y1="57.53" x2="326.87" y2="87.86"/><line class="cls-4" x1="332.73" y1="69.06" x2="333.75" y2="87.6"/><line class="cls-3" x1="339.14" y1="56.36" x2="341.45" y2="87.07"/><line class="cls-4" x1="347.31" y1="68.26" x2="348.33" y2="86.8"/><line class="cls-3" x1="354.21" y1="55.21" x2="356.53" y2="85.92"/><line class="cls-4" x1="362.39" y1="67.12" x2="363.41" y2="85.66"/><line class="cls-3" x1="369.07" y1="54.82" x2="370.88" y2="85.56"/><line class="cls-4" x1="377.05" y1="66.86" x2="377.75" y2="85.42"/><line class="cls-3" x1="461.73" y1="45.59" x2="459.28" y2="83.97"/><line class="cls-4" x1="467.69" y1="66.16" x2="466.12" y2="84.66"/><line class="cls-3" x1="400.75" y1="51.46" x2="400.07" y2="81.86"/><line class="cls-4" x1="407.74" y1="63.72" x2="406.94" y2="82.27"/><line class="cls-3" x1="415.35" y1="51.7" x2="414.66" y2="82.49"/><line class="cls-4" x1="422.33" y1="64.35" x2="421.53" y2="82.9"/><line class="cls-3" x1="430.46" y1="52.03" x2="429.78" y2="82.82"/><line class="cls-4" x1="437.44" y1="64.68" x2="436.65" y2="83.23"/><line class="cls-3" x1="445.29" y1="53.09" x2="444.09" y2="83.86"/><line class="cls-4" x1="452.06" y1="65.85" x2="450.95" y2="84.39"/><line class="cls-3" x1="538.43" y1="51.7" x2="533.24" y2="89.8"/><line class="cls-4" x1="542.91" y1="72.64" x2="540.02" y2="90.98"/><line class="cls-3" x1="477.19" y1="53.19" x2="474.34" y2="83.47"/><line class="cls-4" x1="483.28" y1="65.92" x2="481.16" y2="84.37"/><line class="cls-3" x1="491.73" y1="54.48" x2="488.85" y2="85.14"/><line class="cls-4" x1="497.79" y1="67.59" x2="495.67" y2="86.04"/><line class="cls-3" x1="506.78" y1="55.89" x2="503.9" y2="86.55"/><line class="cls-4" x1="512.84" y1="69" x2="510.72" y2="87.45"/><line class="cls-3" x1="521.5" y1="58" x2="518.1" y2="88.61"/><line class="cls-3" x1="552.08" y1="63" x2="547.45" y2="93.45"/><line class="cls-4" x1="527.34" y1="71.21" x2="524.91" y2="89.63"/></g><g id="_0-2" data-name="0"><path class="cls-2" d="M11.32,95.32s-3.9-9.16-7.21-9.74-2.43-.39-4.11,0v5.33a4.46,4.46,0,0,1,4.59.54C6,92.52,8.17,97.1,8.82,99s1.73,7.08,0,8.28-3.58,2-6.39.75C.52,107.14.08,106.36,0,105.61v4.91l2.94,2s4.68,1.51,9.36-3S11.32,95.32,11.32,95.32Z"/><path class="cls-2" d="M0,105.61v-1A9.2,9.2,0,0,0,0,105.61Z"/></g><g id="_0.5" data-name="0.5"><path class="cls-2" d="M67.55,73.15s0-2.81,1.6-2.33c.61.19,2.4,3.85,3.28,6.82,0,0-.24.64-1.36.8s-2.16-5.29-2.16-5.29S68.11,74.75,67.55,73.15Z"/><path class="cls-2" d="M80.61,66.9l-7,18.59s-.32,1.2,1.28.88L82,67.3S82,66.66,80.61,66.9Z"/><path class="cls-2" d="M81.25,76.64s-.56-1.33,0-1.57,3.83-2.32,6.09-1.76a1.88,1.88,0,0,1,1.49,1.91,2,2,0,0,1-1.11,1.86c-1.23.63-3.28,1.84-3.5,3-.32,1.6-.38,1.12-.38,1.12l5.67-1.52s.8,1.1.48,1.59-7.14,2.26-7.14,2.26A12.7,12.7,0,0,1,82,80.36a7.72,7.72,0,0,1,2.87-3.57c1-.44,2.5-1.43,1.25-1.65C85.11,75,81.25,76.64,81.25,76.64Z"/><path class="cls-2" d="M78.69,92.07c-.82-1.87-3.82-2.53-5.34-1.87,0,0-3.58,2.73-1,6.39,0,0,2.26,2,4.55.58S79.5,93.94,78.69,92.07Zm-2.15,3.54c-.35.28-2.41,1.29-3.31-.62s1-3.15,1-3.15a3,3,0,0,1,3,.85C78.37,94.72,76.89,95.34,76.54,95.61Z"/><path class="cls-2" d="M79.1,89.62l1.61,5.45s1.28.47,1.26-.35a28,28,0,0,0-1-3.9l4.53,1.29.63,1.71s1.22.35,1.18-.43-1.81-5.88-1.81-5.88-1.39,0-1.28.51.7,2.26.7,2.26L80.36,89s-1.18.06-1.26.4S79.1,89.62,79.1,89.62Z"/><path class="cls-2" d="M92,85.58c-.57-.35-4,.2-4.31,2.15s2.93,1.48,2.93,1.48,2-.61,2.13-.06c.27.79.2,1-.22,1.33a3.74,3.74,0,0,1-3,.2c-.82-.48-1,.24-1,.24s-.18.92,1.18,1.32,2.3.67,3.2.24a3.38,3.38,0,0,0,1.84-1.77,3.53,3.53,0,0,0-.37-2.51,1.54,1.54,0,0,0-.6-.36,4.48,4.48,0,0,0-3-.07,8,8,0,0,1-.92.24c-.29,0-.93-.24-.76-.5a2,2,0,0,1,1.62-.82c.17,0,1.53.06,1.61-.11A1.07,1.07,0,0,0,92,85.58Z"/></g><g id="_1" data-name="1"><path class="cls-2" d="M152.61,70.67c-.74-1.9-3.71-2.68-5.25-2.09,0,0-3.7,2.58-1.24,6.34,0,0,2.17,2.12,4.52.78S153.35,72.57,152.61,70.67Zm-2.29,3.45c-.36.26-2.46,1.19-3.28-.76s1.18-3.1,1.18-3.1a3,3,0,0,1,3,1C152.19,73.31,150.68,73.87,150.32,74.12Z"/><path class="cls-2" d="M153.13,68.24l1.38,5.51s1.25.52,1.27-.29a28.59,28.59,0,0,0-.81-3.94L159.45,71l.55,1.73s1.21.41,1.2-.37-1.56-6-1.56-6-1.4-.06-1.3.45.61,2.28.61,2.28l-4.54-1.47s-1.18,0-1.27.34S153.13,68.24,153.13,68.24Z"/><path class="cls-2" d="M166.16,64.74c-.56-.37-4,0-4.4,2s2.87,1.6,2.87,1.6,2-.53,2.14,0c.23.8.15,1-.28,1.32a3.78,3.78,0,0,1-3,.08c-.8-.52-1,.19-1,.19s-.21.91,1.12,1.37,2.27.76,3.2.38a3.44,3.44,0,0,0,1.91-1.7,3.56,3.56,0,0,0-.27-2.52,1.57,1.57,0,0,0-.58-.38,4.43,4.43,0,0,0-3-.2,5.87,5.87,0,0,1-.93.2c-.29,0-.92-.27-.74-.52a2,2,0,0,1,1.65-.77c.17,0,1.53.13,1.62,0A1.07,1.07,0,0,0,166.16,64.74Z"/><path class="cls-2" d="M148.37,47.89s.53-5.21,1.67-5.47,3-.66,3.18,1.15S157,61.38,157,61.91s-3,.84-3.26.71S150.17,48,150.17,48,148.63,48.77,148.37,47.89Z"/></g><g id="_1_5" data-name="1,5"><path class="cls-2" d="M228,54.47c-.6-1.87-3.4-2.81-4.93-2.33,0,0-3.71,2.26-1.57,6,0,0,2,2.17,4.31,1S228.58,56.35,228,54.47Zm-2.41,3.18c-.36.23-2.44,1-3.11-.93a2.46,2.46,0,0,1,1.32-2.91,2.86,2.86,0,0,1,2.79,1.12C227.41,57,225.93,57.43,225.57,57.65Z"/><path class="cls-2" d="M228.63,52.16l1,5.39s1.18.58,1.25-.21a29,29,0,0,0-.54-3.83l4.21,1.69.43,1.7s1.13.46,1.17-.29S235,50.79,235,50.79s-1.34-.14-1.27.36.44,2.23.44,2.23l-4.28-1.69s-1.13-.07-1.24.26S228.63,52.16,228.63,52.16Z"/><path class="cls-2" d="M241.38,49.58c-.51-.39-3.89-.2-4.35,1.63s2.66,1.72,2.66,1.72,1.93-.4,2.05.16c.18.78.09,1-.34,1.25a3.64,3.64,0,0,1-2.9-.11c-.74-.55-1,.12-1,.12s-.26.87,1,1.39,2.14.87,3,.55a3.27,3.27,0,0,0,1.94-1.51,3.41,3.41,0,0,0-.1-2.45,1.64,1.64,0,0,0-.54-.4,4.32,4.32,0,0,0-2.83-.37,5.6,5.6,0,0,1-.91.14c-.28,0-.87-.32-.68-.55a1.91,1.91,0,0,1,1.64-.63c.16,0,1.46.21,1.56.06A1,1,0,0,0,241.38,49.58Z"/><path class="cls-2" d="M218.57,35.6s.9-3.84,1.78-3.93,2.27-.2,2.26,1.17,1.12,13.69,1.07,14.08-2.33.34-2.51.21-1.26-11.26-1.26-11.26S218.68,36.29,218.57,35.6Z"/><path class="cls-2" d="M226.84,32.09s.43-1.71.89-1.74,1.18-.08,1.18.54.71,6.14.69,6.32-1.21.13-1.3.07-.76-5.06-.76-5.06S226.91,32.4,226.84,32.09Z"/><path class="cls-2" d="M227.31,46.26l8.24-17s2.43,0,1.84,1-7.79,15.93-7.79,15.93S228,47.12,227.31,46.26Z"/><path class="cls-2" d="M235.23,39.74V38.5s2.32-1.78,3.45-1.78,3.23.49,3.23,1.78a3,3,0,0,1-2.64,3.23c-2.21.6-1.79,1.84-1.79,1.84a39.58,39.58,0,0,1,4.92-.76c.32.16.8,1.62.32,1.78a53.33,53.33,0,0,1-6.58.86c-.53-.11-.8-3.23-.48-3.61s2.74-2.21,3.42-2.1,1-.66.78-.88a2.5,2.5,0,0,0-3.18.57S236.58,40.22,235.23,39.74Z"/></g><g id="_2-2" data-name="2"><path class="cls-2" d="M303,42.93c-.32-1.94-3-3.28-4.54-3,0,0-4,1.69-2.43,5.73,0,0,1.63,2.43,4.12,1.63S303.33,44.87,303,42.93Zm-2.85,2.8c-.39.17-2.56.62-2.94-1.37s1.74-2.7,1.74-2.7a2.86,2.86,0,0,1,2.59,1.52C302.09,45.33,300.56,45.56,300.16,45.73Z"/><path class="cls-2" d="M304,40.74l.2,5.47s1.08.74,1.26,0a27.63,27.63,0,0,0,0-3.86l3.93,2.28.18,1.74s1.05.63,1.19-.11-.28-5.92-.28-5.92-1.3-.34-1.31.16.11,2.28.11,2.28l-4-2.3s-1.11-.23-1.27.08S304,40.74,304,40.74Z"/><path class="cls-2" d="M317,40c-.46-.46-3.82-.77-4.54,1s2.38,2.09,2.38,2.09,2-.11,2,.45c.06.8-.06,1-.53,1.19a3.63,3.63,0,0,1-2.84-.52c-.66-.66-1,0-1,0s-.38.82.79,1.51,2,1.18,2.93,1a3.27,3.27,0,0,0,2.14-1.22,3.42,3.42,0,0,0,.26-2.44,1.65,1.65,0,0,0-.48-.47,4.26,4.26,0,0,0-2.75-.78,7.24,7.24,0,0,1-.92,0c-.27,0-.81-.44-.59-.64a1.88,1.88,0,0,1,1.71-.39c.16,0,1.42.42,1.54.28A1.06,1.06,0,0,0,317,40Z"/><path class="cls-2" d="M298.57,19.73s2.15-4.48,4.51-5.21c2.6-.81,7.34-1.49,9.24.61s3.46,5.41,1.22,7.65S305,28.6,304,30.57s-1.06,2.16-.9,2.91l13.31-1v2.65l-16.53,1.21s.64-5.55,1.45-6.69a18.15,18.15,0,0,1,4.72-4.1,26.68,26.68,0,0,0,4.71-3.93c.44-.57,1.45-3.65-.86-4.31-2.15-.61-3.48-.86-5.5-.05a9.32,9.32,0,0,0-3.57,2.83Z"/></g><g id="_2_5" data-name="2,5"><path class="cls-2" d="M378.66,36.84c-.42-2.59-3.94-4.36-6.05-4,0,0-5.32,2.25-3.24,7.64,0,0,2.17,3.24,5.49,2.18S379.09,39.43,378.66,36.84Zm-3.79,3.73c-.52.23-3.42.83-3.92-1.83s2.31-3.59,2.31-3.59c2.78.25,3.46,2,3.46,2C377.43,40,375.39,40.34,374.87,40.57Z"/><path class="cls-2" d="M380,33.92l.26,7.3s1.45,1,1.68,0a37,37,0,0,0,0-5.15l5.24,3,.24,2.33s1.4.82,1.59-.16-.37-7.9-.37-7.9-1.74-.44-1.76.23.16,3,.16,3l-5.31-3.06s-1.48-.3-1.69.1C379.91,33.88,380,33.92,380,33.92Z"/><path class="cls-2" d="M397.28,33c-.6-.61-5.08-1-6,1.31s3.18,2.78,3.18,2.78,2.62-.15,2.67.6c.08,1.07-.07,1.34-.7,1.59s-2.92.17-3.79-.7-1.35,0-1.35,0-.51,1.09,1.05,2,2.65,1.56,3.91,1.33a4.36,4.36,0,0,0,2.85-1.63,4.55,4.55,0,0,0,.34-3.25,2.2,2.2,0,0,0-.63-.63,5.77,5.77,0,0,0-3.67-1,10.2,10.2,0,0,1-1.23,0c-.36-.07-1.07-.6-.78-.86a2.58,2.58,0,0,1,2.28-.52c.21,0,1.88.56,2.05.38A1.38,1.38,0,0,0,397.28,33Z"/><path class="cls-2" d="M366.28,14.27s2.47-4.31,4.88-4.87c2.65-.62,7.42-1,9.17,1.28s3.05,5.65.66,7.72-9,5.18-10.1,7.07-1.22,2.09-1.11,2.84l13.34,0-.19,2.64H366.36s1-5.49,1.93-6.57a18.06,18.06,0,0,1,5-3.74,27,27,0,0,0,5-3.58c.48-.54,1.72-3.54-.54-4.36-2.1-.77-3.41-1.12-5.48-.45a9.32,9.32,0,0,0-3.77,2.56Z"/><path class="cls-2" d="M394.76,22.74s1.23-1.82,2.4-2,3.57-.28,4.39.72,1.41,2.5.24,3.35-4.36,2.08-4.93,2.87-.6.88-.56,1.21l6.42.23-.12,1.13-8-.3a10.89,10.89,0,0,1,1-2.8,8.21,8.21,0,0,1,2.44-1.53,12.65,12.65,0,0,0,2.44-1.46c.23-.22.86-1.49-.22-1.89a3.91,3.91,0,0,0-2.63-.3,4.45,4.45,0,0,0-1.84,1Z"/><path class="cls-2" d="M386.42,12.61s1.38-2.2,2-2.17,1.52.08,1.44.87,0,8-.06,8.23-1.57,0-1.69-.1-.22-6.62-.22-6.62S386.46,13,386.42,12.61Z"/><line class="cls-5" x1="385.3" y1="30.63" x2="399.81" y2="10.23"/></g><g id="_3" data-name="3"><path class="cls-2" d="M457.91,38.81c-.19-2-2.76-3.49-4.36-3.34,0,0-4.14,1.43-2.84,5.6,0,0,1.48,2.56,4,1.93S458.1,40.79,457.91,38.81Zm-3.05,2.63c-.41.14-2.62.45-2.87-1.58s1.93-2.6,1.93-2.6a2.92,2.92,0,0,1,2.51,1.7C456.82,41.17,455.27,41.29,454.86,41.44Z"/><path class="cls-2" d="M459,36.67l-.17,5.53s1,.82,1.28.06a28.51,28.51,0,0,0,.28-3.9l3.8,2.57.06,1.77s1,.69,1.21,0,.12-6,.12-6-1.29-.42-1.34.08,0,2.3,0,2.3l-3.86-2.58s-1.1-.31-1.28,0S459,36.67,459,36.67Z"/><path class="cls-2" d="M472.16,36.84c-.42-.49-3.78-1-4.63.68s2.26,2.26,2.26,2.26,2,0,2,.6c0,.8-.13,1-.61,1.16a3.66,3.66,0,0,1-2.83-.72c-.61-.7-1-.1-1-.1s-.44.8.69,1.58,1.92,1.31,2.89,1.2a3.32,3.32,0,0,0,2.23-1.09,3.42,3.42,0,0,0,.42-2.43,1.62,1.62,0,0,0-.44-.51,4.39,4.39,0,0,0-2.72-1,6.11,6.11,0,0,1-.93,0c-.27-.07-.78-.5-.55-.69a1.92,1.92,0,0,1,1.75-.27c.16,0,1.4.52,1.53.39A1,1,0,0,0,472.16,36.84Z"/><path class="cls-2" d="M455,14.53a11.33,11.33,0,0,1,3-.06c.5,0,1.89-2.07,5.08-1.42s3.13,1.56,3.2,2.36-.54,2.31-1.72,2.43-3.37.29-3.37.29-.18,2.43.18,2.43a16.42,16.42,0,0,1,4.95.88,3.5,3.5,0,0,1,1.61,4c-.41,1.48-.39,3.49-2.23,3.67s-4,.89-5.75,0-2.84-1.83-3-3c0,0-3.31-.36-3.31,0s1.54,4.37,4.67,5.38a17.47,17.47,0,0,0,8.28.53c1.42-.42,3.84-2.25,4.32-3.73s-.06-5.67,0-6.15-1.54-3.37-2.72-3.78A5.08,5.08,0,0,0,469.35,16c.06-1.07.08-3.18-.94-4.14s-4.85-2.13-7.57-1.78S455.27,11.39,455,14.53Z"/></g><g id="_3_5" data-name="3,5"><path class="cls-2" d="M534.86,45.29c-.06-2-2.52-3.67-4.13-3.63,0,0-4.22,1.15-3.2,5.4,0,0,1.29,2.65,3.89,2.19S534.92,47.27,534.86,45.29Zm-3.22,2.41c-.42.12-2.65.28-2.76-1.76s2.1-2.46,2.1-2.46a2.89,2.89,0,0,1,2.39,1.86C533.61,47.56,532.05,47.59,531.64,47.7Z"/><path class="cls-2" d="M536.13,43.23l-.54,5.5s1,.89,1.27.15A28.68,28.68,0,0,0,537.4,45L541,47.82,541,49.59s1,.77,1.21,0,.52-6,.52-6-1.25-.51-1.33,0-.2,2.29-.2,2.29l-3.67-2.83s-1.08-.38-1.28-.1S536.13,43.23,536.13,43.23Z"/><path class="cls-2" d="M549.21,44.28c-.39-.52-3.71-1.28-4.67.37s2.11,2.41,2.11,2.41,2,.15,1.94.72c-.05.81-.19,1-.69,1.12a3.65,3.65,0,0,1-2.77-.91c-.57-.74-1-.16-1-.16s-.5.76.58,1.62,1.83,1.44,2.8,1.39a3.24,3.24,0,0,0,2.3-.94,3.43,3.43,0,0,0,.59-2.39A1.67,1.67,0,0,0,550,47a4.38,4.38,0,0,0-2.65-1.15,7.24,7.24,0,0,1-.92-.12c-.27-.08-.75-.55-.5-.72a2,2,0,0,1,1.76-.16c.15.06,1.36.62,1.5.49A1,1,0,0,0,549.21,44.28Z"/><path class="cls-2" d="M525.09,23a10.12,10.12,0,0,1,2.56-.05c.44,0,1.64-1.79,4.4-1.23s2.7,1.35,2.76,2-.46,2-1.48,2.1-2.92.25-2.92.25-.15,2.1.16,2.1a13.84,13.84,0,0,1,4.28.77,3,3,0,0,1,1.39,3.47c-.36,1.28-.34,3-1.93,3.17s-3.49.76-5,0S526.89,34,526.73,33c0,0-2.86-.31-2.86,0s1.33,3.78,4,4.65a14.94,14.94,0,0,0,7.15.46c1.23-.36,3.32-1.94,3.73-3.22s0-4.9,0-5.31-1.33-2.91-2.35-3.27a4.41,4.41,0,0,0,1.07-2.05c.06-.91.07-2.74-.8-3.57a11.07,11.07,0,0,0-6.55-1.53C527.81,19.47,525.35,20.29,525.09,23Z"/><path class="cls-2" d="M548.74,32.24s1.35-1.34,2.37-1.32,3.09.35,3.62,1.33.8,2.36-.34,2.89-4,1.06-4.66,1.64-.66.65-.68.94L554.48,39l-.29.95-6.73-1.56a9.18,9.18,0,0,1,1.3-2.22,7.31,7.31,0,0,1,2.34-.91,10.46,10.46,0,0,0,2.3-.84c.24-.15,1-1.13.13-1.65a3.4,3.4,0,0,0-2.2-.68,3.8,3.8,0,0,0-1.73.58Z"/><path class="cls-2" d="M542.11,23.26s1.54-1.65,2-1.53,1.29.32,1.09,1-1.31,6.81-1.4,7-1.33-.27-1.41-.36.89-5.67.89-5.67S542.08,23.61,542.11,23.26Z"/><line class="cls-6" x1="540.02" y1="37.96" x2="553.55" y2="25.01"/></g><g id="pijl"><polygon class="cls-2" points="250.87 171.16 304.14 202.97 306.21 140.91 250.87 171.16"/><polygon class="cls-2" points="265.22 181.31 279.57 190.43 93.47 500.07 77.81 491.86 265.22 181.31"/><polygon class="cls-2" points="280.58 191 287.98 195.8 241.79 272.2 234.41 267.5 280.58 191"/><polygon class="cls-2" points="211.41 306.05 234.06 268.38 241.08 273.09 218.51 310.85 211.41 306.05"/><polygon class="cls-2" points="211.08 306.81 208.96 309.95 215.92 314.79 218.17 311.37 211.08 306.81"/><polygon class="cls-2" points="208.71 310.8 215.45 315.62 29.12 626.63 21.59 621.97 208.71 310.8"/><polygon class="cls-2" points="93.05 500.95 77.81 492.58 58.02 525.49 73.17 535.1 93.05 500.95"/><polygon class="cls-2" points="57.69 526.05 72.81 535.7 17.11 628.31 2.15 618.84 57.69 526.05"/><polygon class="cls-2" points="21.59 623.1 7.96 646.23 11.5 656.62 28.81 627.6 21.59 623.1"/><polygon class="cls-2" points="2.15 619.78 7.96 645.35 17.39 629.07 2.15 619.78"/></g><g id="pijl_klein"><polygon class="cls-2" points="238.82 503.47 229.23 518.93 266.88 543.26 276.48 528.52 238.82 503.47"/><polygon class="cls-2" points="353.11 577.66 343.53 592.92 267.26 543.54 277.06 528.67 353.11 577.66"/><polygon class="cls-2" points="300.65 576.16 305.65 569.14 343.29 593.28 338.25 600.84 300.65 576.16"/><polygon class="cls-2" points="305.09 568.8 300.27 575.87 224.67 526.24 229.23 519.23 305.09 568.8"/><polygon class="cls-2" points="334.14 608.17 358.39 570.9 376.73 609.06 334.14 608.17"/></g><g id="zoo"><polygon class="cls-1" points="12.01 675.09 33.51 688.49 49.95 662.7 88.64 743.37 137.45 664.22 114.95 650.3 91.93 690.01 54.25 608.32 12.01 675.09"/><path class="cls-1" d="M151,543.26s-41.66-23.44-71.68,17c0,0-28,47,16.93,76.16s75.59-19.26,75.59-19.26S196.43,570.73,151,543.26Zm-6,67.39s-22.17,20.16-40.54,0,0-41.66,0-41.66c4.7-4.48,29.34-16.8,43.23,4.48S144.9,610.65,144.9,610.65Z"/><path class="cls-1" d="M210.28,444.72s-41.66-23.44-71.68,17c0,0-28,47,16.93,76.16s75.59-19.26,75.59-19.26S255.76,472.19,210.28,444.72Zm-6,67.39s-22.18,20.16-40.55,0,0-41.66,0-41.66c4.7-4.48,29.35-16.8,43.23,4.48S204.24,512.11,204.24,512.11Z"/></g><g id="meetlijn_O"><rect class="cls-1" x="389.36" y="551.64" width="18.99" height="17.5"/><rect class="cls-1" x="416.73" y="551.64" width="16.76" height="17.5"/><rect class="cls-1" x="441.59" y="551.64" width="18.71" height="17.5"/><rect class="cls-1" x="467.56" y="551.64" width="18.43" height="17.5"/><rect class="cls-1" x="494.1" y="551.64" width="17.88" height="17.5"/></g><g id="model"><polygon id="M" class="cls-2" points="193.41 687.03 193.41 709.74 198.02 709.74 198.02 693.96 203.54 709.74 206.87 709.74 212.39 693.96 212.39 709.74 216.75 709.74 216.75 687.03 210.72 687.03 205.08 702.68 199.69 687.03 193.41 687.03"/><path id="O" class="cls-2" d="M233.41,687s-10.63-.56-10.77,11.35,10.77,11.92,10.77,11.92,10.78.45,11.05-11.63S233.41,687,233.41,687Zm2.46,18.91s-9.27,2.45-8.86-6.82,6.27-8.45,6.27-8.45c1.81-.21,6.54,1.23,6.54,7.77S235.87,705.94,235.87,705.94Z"/><path id="D" class="cls-2" d="M261.68,687H249.51v22.54H262.2s6.85-1.8,6.85-10.9S263.08,687,261.68,687ZM261,705.88h-7.31V690.65h7s3.69,1.37,3.69,8S261,705.88,261,705.88Z"/><polygon id="E" class="cls-2" points="275.33 686.59 275.33 709.26 293.44 709.26 293.44 705.33 279.85 705.33 279.85 699.55 290.82 699.55 290.82 695.52 279.85 695.52 279.85 690.28 293.44 690.28 293.44 686.59 275.33 686.59"/><polygon id="L" class="cls-2" points="298.68 686.59 303.15 686.59 303.15 705.43 315.82 705.43 315.82 709.26 298.68 709.26 298.68 686.59"/></g><polygon id="Z" class="cls-2" points="188.98 747.18 254.74 747.18 188.98 834.86 315.82 834.86 315.82 806.48 244.46 806.48 312.07 717.64 188.98 718.52 188.98 747.18"/><g id="cm"><path class="cls-2" d="M429.3,635.42l4.75-2s-2.54-9.28-13.47-9.28-14,10.38-14,10.38a18.37,18.37,0,0,0,3.75,18.89c4.25,4.71,9.49,4.86,13.52,4a14.74,14.74,0,0,0,9.45-6.9,4.22,4.22,0,0,0,.78-2c-.06-.91-1.67-1.83-3-2.42a1.59,1.59,0,0,0-2.14.8,8.87,8.87,0,0,1-8.26,5.57c-3.09.11-9.13-2.73-8.92-11.42.17-7.07,2.41-12.16,9.93-11.34C426.12,630.12,428,632,429.3,635.42Z"/><rect class="cls-2" x="437.6" y="645.76" width="7.7" height="8.12"/><polygon class="cls-2" points="452.46 653.88 452.46 613.17 463.54 613.17 472.62 640.98 481.95 613.17 492.64 613.17 492.64 653.88 486.05 653.88 486.05 621.75 475.83 653.88 469.86 653.88 459.13 623.03 459.13 653.88 452.46 653.88"/><rect class="cls-2" x="499.49" y="645.48" width="7.9" height="8.4"/></g></svg>